#N canvas 291 241 1419 694 10;
#X declare -lib mrpeach;
#X obj 26 -6 loadbang;
#X msg 26 58 \; pd dsp 1 \;;
#X floatatom 405 263 5 0 0 0 - - -;
#X floatatom 450 264 5 0 0 0 - - -;
#X obj 405 282 t b;
#X obj 450 283 t b;
#X obj 405 326 line;
#X floatatom 405 348 5 0 0 0 - - -;
#X obj 311 367 mtof;
#X obj 123 -6 import mrpeach;
#X obj 311 35 udpreceive 9001;
#X obj 311 58 unpackOSC;
#X floatatom 311 203 5 0 0 0 - - -;
#X obj 311 109 int;
#X obj 311 417 line;
#X obj 311 531 clip~ -1 1;
#X text 444 348 pseudo ADSR;
#X obj 311 85 routeOSC /distance1;
#X obj 311 155 int;
#X obj 311 449 clip 20 20000;
#X obj 311 339 spigot;
#X msg 344 296 1;
#X msg 354 317 0;
#X obj 311 222 t f f;
#N canvas 958 263 450 300 noise 0;
#X obj 87 57 inlet;
#X obj 109 110 * 1;
#X obj 169 110 * 2;
#X obj 229 110 * 3;
#X obj 289 110 * 4;
#X obj 349 110 * 5;
#X obj 409 110 * 6;
#X obj -5 126 noise~;
#X obj 87 142 bp~ 0 32;
#X obj 147 142 bp~ 0 32;
#X obj 207 142 bp~ 0 32;
#X obj 267 142 bp~ 0 32;
#X obj 327 142 bp~ 0 32;
#X obj 387 142 bp~ 0 32;
#X obj 88 229 lop~;
#X obj 88 249 lop~;
#X obj 88 272 outlet~;
#X obj 87 173 *~ 0.4;
#X obj 207 173 *~ 0.4;
#X obj 328 173 *~ 0.8;
#X obj 387 173 *~ 1;
#X obj 147 173 *~ 0.4;
#X obj 267 173 *~ 0.8;
#X obj 27 142 bp~ 0 32;
#X obj 49 110 * 0.5;
#X obj 27 173 *~ 0.5;
#X connect 0 0 1 0;
#X connect 0 0 2 0;
#X connect 0 0 3 0;
#X connect 0 0 4 0;
#X connect 0 0 5 0;
#X connect 0 0 6 0;
#X connect 0 0 14 1;
#X connect 0 0 15 1;
#X connect 0 0 24 0;
#X connect 1 0 8 1;
#X connect 2 0 9 1;
#X connect 3 0 10 1;
#X connect 4 0 11 1;
#X connect 5 0 12 1;
#X connect 6 0 13 1;
#X connect 7 0 8 0;
#X connect 7 0 9 0;
#X connect 7 0 10 0;
#X connect 7 0 11 0;
#X connect 7 0 12 0;
#X connect 7 0 13 0;
#X connect 8 0 17 0;
#X connect 9 0 21 0;
#X connect 10 0 18 0;
#X connect 11 0 22 0;
#X connect 12 0 19 0;
#X connect 13 0 20 0;
#X connect 14 0 15 0;
#X connect 15 0 16 0;
#X connect 17 0 14 0;
#X connect 18 0 14 0;
#X connect 19 0 14 0;
#X connect 20 0 14 0;
#X connect 21 0 14 0;
#X connect 22 0 14 0;
#X connect 23 0 25 0;
#X connect 24 0 23 1;
#X connect 25 0 14 0;
#X restore 311 479 pd noise;
#N canvas 963 268 450 300 osc 0;
#X obj 37 57 inlet;
#X obj 38 229 outlet~;
#X obj 37 142 osc~;
#X obj 87 142 osc~;
#X obj 137 142 osc~;
#X obj 187 142 osc~;
#X obj 237 142 osc~;
#X obj 287 142 osc~;
#X obj 37 173 *~ 1;
#X obj 37 110 * 1;
#X obj 87 110 * 2;
#X obj 137 110 * 3;
#X obj 187 110 * 4;
#X obj 237 110 * 5;
#X obj 287 110 * 6;
#X obj 187 173 *~ 0.3;
#X obj 87 173 *~ 0.1;
#X obj 137 173 *~ 0.2;
#X obj 238 173 *~ 0.4;
#X obj 287 173 *~ 0.5;
#X connect 0 0 9 0;
#X connect 0 0 10 0;
#X connect 0 0 11 0;
#X connect 0 0 12 0;
#X connect 0 0 13 0;
#X connect 0 0 14 0;
#X connect 2 0 8 0;
#X connect 3 0 16 0;
#X connect 4 0 17 0;
#X connect 5 0 15 0;
#X connect 6 0 18 0;
#X connect 7 0 19 0;
#X connect 8 0 1 0;
#X connect 9 0 2 0;
#X connect 10 0 3 0;
#X connect 11 0 4 0;
#X connect 12 0 5 0;
#X connect 13 0 6 0;
#X connect 14 0 7 0;
#X connect 15 0 1 0;
#X connect 16 0 1 0;
#X connect 17 0 1 0;
#X connect 18 0 1 0;
#X connect 19 0 1 0;
#X restore 201 496 pd osc;
#X msg 311 396 \$1 200;
#X msg 450 305 0 500;
#X msg 405 304 1 300;
#X obj 311 508 *~ 1;
#X obj 311 585 dac~;
#X obj 26 28 delay 500;
#X obj 405 241 moses 84;
#X obj 650 556 packOSC;
#X obj 650 580 udpsend;
#X obj 739 500 loadbang;
#X msg 739 556 connect 127.0.0.1 9002;
#X obj 650 411 metro 100;
#X obj 650 436 f 0;
#X obj 681 436 + 1;
#X obj 650 460 % 80;
#X obj 650 485 sel 79;
#X obj 650 507 random 5;
#X msg 640 358 0;
#X obj 563 425 t b b;
#X msg 590 449 0;
#X msg 563 449 1;
#X floatatom 650 601 5 0 0 0 - - -;
#X msg 650 530 send /ph \$1;
#X obj 739 529 delay 10000;
#X obj 650 628 sel 0;
#X obj 563 358 t b b;
#X msg 563 379 0;
#X obj 612 337 t b b;
#X msg 612 358 1;
#X obj 563 402 spigot 1;
#X floatatom 578 494 5 0 0 0 - - -;
#X obj 311 553 *~ 10;
#X obj 311 133 / 1;
#X obj 311 178 + 30;
#X connect 0 0 31 0;
#X connect 2 0 4 0;
#X connect 3 0 5 0;
#X connect 4 0 28 0;
#X connect 4 0 21 0;
#X connect 4 0 51 0;
#X connect 5 0 27 0;
#X connect 5 0 22 0;
#X connect 5 0 53 0;
#X connect 6 0 7 0;
#X connect 7 0 29 1;
#X connect 8 0 26 0;
#X connect 10 0 11 0;
#X connect 11 0 17 0;
#X connect 12 0 23 0;
#X connect 13 0 58 0;
#X connect 14 0 19 0;
#X connect 15 0 57 0;
#X connect 17 0 13 0;
#X connect 18 0 59 0;
#X connect 19 0 24 0;
#X connect 20 0 8 0;
#X connect 21 0 20 1;
#X connect 22 0 20 1;
#X connect 23 0 20 0;
#X connect 23 1 32 0;
#X connect 24 0 29 0;
#X connect 26 0 14 0;
#X connect 27 0 6 0;
#X connect 28 0 6 0;
#X connect 29 0 15 0;
#X connect 31 0 1 0;
#X connect 32 0 2 0;
#X connect 32 1 3 0;
#X connect 33 0 34 0;
#X connect 34 0 47 0;
#X connect 35 0 49 0;
#X connect 36 0 34 0;
#X connect 37 0 38 0;
#X connect 38 0 39 0;
#X connect 38 0 40 0;
#X connect 39 0 38 1;
#X connect 40 0 41 0;
#X connect 40 0 56 0;
#X connect 41 0 42 0;
#X connect 42 0 48 0;
#X connect 43 0 37 0;
#X connect 43 0 38 0;
#X connect 44 0 46 0;
#X connect 44 1 45 0;
#X connect 45 0 38 0;
#X connect 46 0 37 0;
#X connect 47 0 50 0;
#X connect 48 0 33 0;
#X connect 49 0 36 0;
#X connect 50 0 36 0;
#X connect 51 0 52 0;
#X connect 51 1 55 0;
#X connect 52 0 55 1;
#X connect 53 0 54 0;
#X connect 53 1 43 0;
#X connect 54 0 55 1;
#X connect 55 0 44 0;
#X connect 57 0 30 0;
#X connect 57 0 30 1;
#X connect 58 0 18 0;
#X connect 59 0 12 0;
